<svg xmlns="http://www.w3.org/2000/svg" width="512" height="512" viewBox="0 0 512 512" style="overflow: visible;" data-bbox="160.47539418788438 171.17110891267657 190.7222287035911 150.62437398349493"><rect data-uid="o_f5i443a2e_4" data-fl-background="" x="0" y="0" width="512" height="512" fill="#FFFFFF"></rect><path text="sampark" fill="#00aa95" space="preserve" text-anchor="middle" offset="0.5" font-scale="contain" font-size="48" font-family="DM Sans" transform="matrix(0.9505599141120911, 0, 0, 0.9505599141120911, 255.29183959960938, 288.5224609375)" data-fl-textpath="" font-weight="700" font-style="normal" data-uid="o_f5i443a2e_5" d="M-88.608 0.58L-88.608 0.58Q-91.77800000000002 0.58 -94.17800000000001-0.46Q-96.57800000000002-1.49 -98.01800000000001-3.31Q-99.45800000000001-5.14 -99.74800000000002-7.54L-99.74800000000002-7.54L-93.54800000000002-7.54Q-93.26800000000001-6.14 -91.98800000000001-5.16Q-90.71800000000002-4.18 -88.70800000000001-4.18L-88.70800000000001-4.18Q-86.68800000000002-4.18 -85.74800000000002-4.99Q-84.81800000000001-5.81 -84.81800000000001-6.86L-84.81800000000001-6.86Q-84.81800000000001-8.4 -86.15800000000002-8.95Q-87.50800000000001-9.5 -89.90800000000002-10.03L-89.90800000000002-10.03Q-91.43800000000002-10.37 -93.02800000000002-10.85Q-94.60800000000002-11.33 -95.92800000000001-12.07Q-97.24800000000002-12.82 -98.06800000000001-13.99Q-98.87800000000001-15.17 -98.87800000000001-16.9L-98.87800000000001-16.9Q-98.87800000000001-20.06 -96.35800000000002-22.22Q-93.83800000000001-24.38 -89.27800000000002-24.38L-89.27800000000002-24.38Q-85.058-24.38 -82.53800000000001-22.42Q-80.01800000000001-20.45 -79.53800000000001-16.99L-79.53800000000001-16.99L-85.34800000000001-16.99Q-85.86800000000001-19.63 -89.32800000000002-19.63L-89.32800000000002-19.63Q-91.058-19.63 -91.98800000000001-18.96Q-92.92800000000001-18.29 -92.92800000000001-17.28L-92.92800000000001-17.28Q-92.92800000000001-16.22 -91.53800000000001-15.6Q-90.14800000000001-14.98 -87.83800000000001-14.45L-87.83800000000001-14.45Q-85.34800000000001-13.87 -83.25800000000001-13.18Q-81.168-12.48 -79.918-11.11Q-78.668-9.74 -78.668-7.2L-78.668-7.2Q-78.62800000000001-4.99 -79.82800000000002-3.22Q-81.02800000000002-1.44 -83.27800000000002-0.43Q-85.53800000000001 0.58 -88.608 0.58ZM-65.03800000000001 0.58L-65.03800000000001 0.58Q-68.108 0.58 -70.078-0.41Q-72.048-1.39 -73.00800000000001-3.02Q-73.968-4.66 -73.968-6.62L-73.968-6.62Q-73.968-9.94 -71.37800000000001-12Q-68.78800000000001-14.06 -63.59800000000001-14.06L-63.59800000000001-14.06L-57.54800000000001-14.06L-57.54800000000001-14.64Q-57.54800000000001-17.09 -58.94800000000001-18.24Q-60.33800000000001-19.39 -62.39800000000001-19.39L-62.39800000000001-19.39Q-64.26800000000001-19.39 -65.668-18.5Q-67.058-17.62 -67.388-15.89L-67.388-15.89L-73.388-15.89Q-73.14800000000001-18.48 -71.638-20.4Q-70.12800000000001-22.32 -67.72800000000001-23.35Q-65.328-24.38 -62.34800000000001-24.38L-62.34800000000001-24.38Q-57.26800000000001-24.38 -54.33800000000001-21.84Q-51.40800000000001-19.3 -51.40800000000001-14.64L-51.40800000000001-14.64L-51.40800000000001 0L-56.638000000000005 0L-57.21800000000001-3.84Q-58.26800000000001-1.92 -60.168000000000006-0.67Q-62.06800000000001 0.58 -65.03800000000001 0.58ZM-63.64800000000001-4.22L-63.64800000000001-4.22Q-61.00800000000001-4.22 -59.54800000000001-5.95Q-58.07800000000001-7.68 -57.69800000000001-10.22L-57.69800000000001-10.22L-62.92800000000001-10.22Q-65.37800000000001-10.22 -66.42800000000001-9.34Q-67.48800000000001-8.45 -67.48800000000001-7.15L-67.48800000000001-7.15Q-67.48800000000001-5.76 -66.42800000000001-4.99Q-65.37800000000001-4.22 -63.64800000000001-4.22ZM-39.41200000000001 0L-45.552000000000014 0L-45.552000000000014-23.81L-40.13200000000001-23.81L-39.60200000000001-20.59Q-38.45200000000001-22.32 -36.552000000000014-23.35Q-34.652000000000015-24.38 -32.162000000000006-24.38L-32.162000000000006-24.38Q-26.64200000000001-24.38 -24.33200000000001-20.11L-24.33200000000001-20.11Q-23.042000000000012-22.08 -20.85200000000001-23.23Q-18.67200000000001-24.38 -16.082000000000008-24.38L-16.082000000000008-24.38Q-11.422000000000011-24.38 -8.93200000000001-21.6Q-6.432000000000009-18.82 -6.432000000000009-13.44L-6.432000000000009-13.44L-6.432000000000009 0L-12.57200000000001 0L-12.57200000000001-12.86Q-12.57200000000001-15.94 -13.75200000000001-17.57Q-14.93200000000001-19.2 -17.37200000000001-19.2L-17.37200000000001-19.2Q-19.87200000000001-19.2 -21.382000000000012-17.38Q-22.89200000000001-15.55 -22.89200000000001-12.29L-22.89200000000001-12.29L-22.89200000000001 0L-29.042000000000012 0L-29.042000000000012-12.86Q-29.042000000000012-15.94 -30.24200000000001-17.57Q-31.44200000000001-19.2 -33.93200000000001-19.2L-33.93200000000001-19.2Q-36.38200000000001-19.2 -37.89200000000001-17.38Q-39.41200000000001-15.55 -39.41200000000001-12.29L-39.41200000000001-12.29L-39.41200000000001 0ZM 5.563999999999988 10.56L-0.5760000000000121 10.56L-0.5760000000000121-23.81L 4.893999999999988-23.81L 5.563999999999988-20.4Q 6.723999999999988-21.98  8.613999999999988-23.18Q 10.513999999999989-24.38  13.533999999999988-24.38L 13.533999999999988-24.38Q 16.893999999999988-24.38  19.53399999999999-22.75Q 22.17399999999999-21.12  23.713999999999988-18.29Q 25.24399999999999-15.46  25.24399999999999-11.86L 25.24399999999999-11.86Q 25.24399999999999-8.26  23.713999999999988-5.45Q 22.17399999999999-2.64  19.53399999999999-1.03Q 16.893999999999988 0.58  13.533999999999988 0.58L 13.533999999999988 0.58Q 10.843999999999987 0.58  8.833999999999987-0.43Q 6.813999999999988-1.44  5.563999999999988-3.26L 5.563999999999988-3.26L 5.563999999999988 10.56ZM 12.243999999999987-4.8L 12.243999999999987-4.8Q 15.163999999999987-4.8  17.08399999999999-6.77Q 19.003999999999987-8.74  19.003999999999987-11.86L 19.003999999999987-11.86Q 19.003999999999987-14.98  17.08399999999999-16.99Q 15.163999999999987-19.01  12.243999999999987-19.01L 12.243999999999987-19.01Q 9.263999999999989-19.01  7.363999999999988-17.02Q 5.473999999999988-15.02  5.473999999999988-11.9L 5.473999999999988-11.9Q 5.473999999999988-8.78  7.363999999999988-6.79Q 9.263999999999989-4.8  12.243999999999987-4.8ZM 38.929999999999986 0.58L 38.929999999999986 0.58Q 35.859999999999985 0.58  33.889999999999986-0.41Q 31.919999999999987-1.39  30.959999999999987-3.02Q 29.999999999999986-4.66  29.999999999999986-6.62L 29.999999999999986-6.62Q 29.999999999999986-9.94  32.58999999999999-12Q 35.179999999999986-14.06  40.36999999999999-14.06L 40.36999999999999-14.06L 46.41999999999999-14.06L 46.41999999999999-14.64Q 46.41999999999999-17.09  45.01999999999999-18.24Q 43.62999999999999-19.39  41.569999999999986-19.39L 41.569999999999986-19.39Q 39.69999999999999-19.39  38.29999999999998-18.5Q 36.90999999999999-17.62  36.579999999999984-15.89L 36.579999999999984-15.89L 30.579999999999988-15.89Q 30.819999999999986-18.48  32.329999999999984-20.4Q 33.83999999999999-22.32  36.23999999999999-23.35Q 38.639999999999986-24.38  41.61999999999999-24.38L 41.61999999999999-24.38Q 46.69999999999999-24.38  49.62999999999999-21.84Q 52.55999999999999-19.3  52.55999999999999-14.64L 52.55999999999999-14.64L 52.55999999999999 0L 47.329999999999984 0L 46.749999999999986-3.84Q 45.69999999999999-1.92  43.79999999999998-0.67Q 41.89999999999999 0.58  38.929999999999986 0.58ZM 40.319999999999986-4.22L 40.319999999999986-4.22Q 42.95999999999999-4.22  44.41999999999999-5.95Q 45.889999999999986-7.68  46.26999999999999-10.22L 46.26999999999999-10.22L 41.039999999999985-10.22Q 38.58999999999999-10.22  37.539999999999985-9.34Q 36.47999999999999-8.45  36.47999999999999-7.15L 36.47999999999999-7.15Q 36.47999999999999-5.76  37.539999999999985-4.99Q 38.58999999999999-4.22  40.319999999999986-4.22ZM 64.556 0L 58.416 0L 58.416-23.81L 63.885999999999996-23.81L 64.466-19.34Q 65.756-21.65  67.996-23.02Q 70.226-24.38  73.246-24.38L 73.246-24.38L 73.246-17.9L 71.51599999999999-17.9Q 69.506-17.9  67.916-17.28Q 66.336-16.66  65.446-15.12Q 64.556-13.58  64.556-10.85L 64.556-10.85L 64.556 0ZM 83.564 0L 77.42399999999999 0L 77.42399999999999-34.56L 83.564-34.56L 83.564-14.16L 92.01399999999998-23.81L 99.314-23.81L 89.564-12.96L 100.89399999999999 0L 93.21399999999998 0L 83.564-11.95L 83.564 0Z"></path><path text="Because We Care." fill="#024840" space="preserve" text-anchor="middle" offset="0.5" font-scale="contain" font-size="48" font-family="Lato" transform="matrix(0.28199633955955505, 0, 0, 0.28199633955955505, 255.541259765625, 321.6883239746094)" data-fl-textpath="" font-style="normal" font-weight="400" data-uid="o_f5i443a2e_6" d="M-173.332 0L-185.492 0L-185.492-34.39L-174.53199999999998-34.39Q-171.362-34.39 -169.072-33.77Q-166.772-33.14 -165.302-31.99Q-163.822-30.84 -163.112-29.17Q-162.412-27.5 -162.412-25.42L-162.412-25.42Q-162.412-24.14 -162.802-22.97Q-163.202-21.79 -164.002-20.78Q-164.812-19.78 -166.022-18.98Q-167.232-18.19 -168.862-17.69L-168.862-17.69Q-165.09199999999998-16.94 -163.172-14.98Q-161.252-13.01 -161.252-9.79L-161.252-9.79Q-161.252-7.61 -162.062-5.81Q-162.862-4.01 -164.412-2.71Q-165.962-1.42 -168.202-0.71Q-170.452 0 -173.332 0L-173.332 0ZM-173.422-15.67L-180.84199999999998-15.67L-180.84199999999998-3.7L-173.402-3.7Q-171.412-3.7 -169.982-4.15Q-168.552-4.61 -167.632-5.44Q-166.702-6.26 -166.272-7.4Q-165.84199999999998-8.54 -165.84199999999998-9.91L-165.84199999999998-9.91Q-165.84199999999998-12.58 -167.722-14.12Q-169.612-15.67 -173.422-15.67L-173.422-15.67ZM-180.84199999999998-30.72L-180.84199999999998-18.98L-174.692-18.98Q-172.732-18.98 -171.292-19.42Q-169.852-19.85 -168.902-20.62Q-167.952-21.38 -167.492-22.48Q-167.042-23.57 -167.042-24.86L-167.042-24.86Q-167.042-27.89 -168.862-29.3Q-170.692-30.72 -174.53199999999998-30.72L-174.53199999999998-30.72L-180.84199999999998-30.72ZM-145.486-24.7L-145.486-24.7Q-143.30599999999998-24.7 -141.456-23.96Q-139.606-23.23 -138.266-21.85Q-136.916-20.47 -136.166-18.44Q-135.40599999999998-16.42 -135.40599999999998-13.82L-135.40599999999998-13.82Q-135.40599999999998-12.82 -135.62599999999998-12.48Q-135.83599999999998-12.14 -136.43599999999998-12.14L-136.43599999999998-12.14L-152.61599999999999-12.14Q-152.56599999999997-9.84 -151.99599999999998-8.14Q-151.416-6.43 -150.40599999999998-5.29Q-149.396-4.15 -148.00599999999997-3.59Q-146.61599999999999-3.02 -144.886-3.02L-144.886-3.02Q-143.27599999999998-3.02 -142.11599999999999-3.4Q-140.956-3.77 -140.11599999999999-4.2Q-139.27599999999998-4.63 -138.706-5Q-138.146-5.38 -137.736-5.38L-137.736-5.38Q-137.206-5.38 -136.916-4.97L-136.916-4.97L-135.71599999999998-3.41Q-136.516-2.45 -137.61599999999999-1.74Q-138.71599999999998-1.03 -139.976-0.58Q-141.236-0.12 -142.58599999999998 0.11Q-143.926 0.34 -145.24599999999998 0.34L-145.24599999999998 0.34Q-147.766 0.34 -149.896-0.52Q-152.016-1.37 -153.56599999999997-3.01Q-155.11599999999999-4.66 -155.976-7.08Q-156.83599999999998-9.5 -156.83599999999998-12.65L-156.83599999999998-12.65Q-156.83599999999998-15.19 -156.05599999999998-17.4Q-155.27599999999998-19.61 -153.81599999999997-21.23Q-152.356-22.85 -150.236-23.77Q-148.12599999999998-24.7 -145.486-24.7ZM-145.396-21.55L-145.396-21.55Q-148.486-21.55 -150.266-19.76Q-152.03599999999997-17.98 -152.476-14.81L-152.476-14.81L-139.24599999999998-14.81Q-139.24599999999998-16.3 -139.65599999999998-17.53Q-140.06599999999997-18.77 -140.856-19.67Q-141.646-20.57 -142.78599999999997-21.06Q-143.926-21.55 -145.396-21.55ZM-112.244-21.53L-113.374-19.99Q-113.564-19.73 -113.764-19.58Q-113.954-19.44 -114.314-19.44L-114.314-19.44Q-114.674-19.44 -115.094-19.74Q-115.514-20.04 -116.164-20.4Q-116.804-20.76 -117.734-21.06Q-118.654-21.36 -120.00399999999999-21.36L-120.00399999999999-21.36Q-121.774-21.36 -123.144-20.72Q-124.514-20.09 -125.434-18.89Q-126.364-17.69 -126.824-15.98Q-127.294-14.28 -127.294-12.17L-127.294-12.17Q-127.294-9.96 -126.794-8.24Q-126.28399999999999-6.53 -125.374-5.36Q-124.464-4.2 -123.154-3.59Q-121.844-2.98 -120.214-2.98L-120.214-2.98Q-118.654-2.98 -117.644-3.35Q-116.644-3.72 -115.964-4.18Q-115.294-4.63 -114.864-5Q-114.434-5.38 -114.00399999999999-5.38L-114.00399999999999-5.38Q-113.444-5.38 -113.184-4.97L-113.184-4.97L-111.984-3.41Q-113.564-1.46 -115.944-0.56Q-118.324 0.34 -120.964 0.34L-120.964 0.34Q-123.244 0.34 -125.194-0.5Q-127.154-1.34 -128.594-2.94Q-130.034-4.54 -130.864-6.86Q-131.684-9.19 -131.684-12.17L-131.684-12.17Q-131.684-14.88 -130.934-17.18Q-130.174-19.49 -128.724-21.16Q-127.274-22.82 -125.134-23.76Q-123.00399999999999-24.7 -120.244-24.7L-120.244-24.7Q-117.694-24.7 -115.724-23.87Q-113.764-23.04 -112.244-21.53L-112.244-21.53ZM-89.688-15.55L-89.688 0L-91.588 0Q-92.208 0 -92.588-0.19Q-92.97800000000001-0.38 -93.098-1.01L-93.098-1.01L-93.578-3.26Q-94.538-2.4 -95.44800000000001-1.72Q-96.358-1.03 -97.368-0.56Q-98.378-0.1 -99.518 0.14Q-100.658 0.38 -102.048 0.38L-102.048 0.38Q-103.468 0.38 -104.69800000000001-0.01Q-105.938-0.41 -106.848-1.2Q-107.758-1.99 -108.298-3.2Q-108.83800000000001-4.42 -108.83800000000001-6.07L-108.83800000000001-6.07Q-108.83800000000001-7.51 -108.048-8.84Q-107.258-10.18 -105.488-11.21Q-103.72800000000001-12.24 -100.868-12.9Q-98.018-13.56 -93.888-13.66L-93.888-13.66L-93.888-15.55Q-93.888-18.38 -95.098-19.84Q-96.308-21.29 -98.688-21.29L-98.688-21.29Q-100.248-21.29 -101.318-20.89Q-102.388-20.5 -103.168-20Q-103.94800000000001-19.51 -104.508-19.12Q-105.068-18.72 -105.628-18.72L-105.628-18.72Q-106.058-18.72 -106.378-18.95Q-106.708-19.18 -106.898-19.51L-106.898-19.51L-107.668-20.88Q-105.648-22.82 -103.318-23.78Q-100.988-24.74 -98.158-24.74L-98.158-24.74Q-96.118-24.74 -94.538-24.07Q-92.94800000000001-23.4 -91.868-22.2Q-90.788-21 -90.238-19.3Q-89.688-17.59 -89.688-15.55L-89.688-15.55ZM-100.778-2.62L-100.778-2.62Q-99.648-2.62 -98.708-2.84Q-97.778-3.07 -96.94800000000001-3.49Q-96.118-3.91 -95.368-4.51Q-94.608-5.11 -93.888-5.88L-93.888-5.88L-93.888-10.94Q-96.838-10.85 -98.908-10.48Q-100.968-10.1 -102.268-9.5Q-103.558-8.9 -104.148-8.09Q-104.738-7.27 -104.738-6.26L-104.738-6.26Q-104.738-5.3 -104.428-4.61Q-104.108-3.91 -103.58800000000001-3.47Q-103.058-3.02 -102.338-2.82Q-101.618-2.62 -100.778-2.62ZM-83.782-24.31L-79.512-24.31L-79.512-8.81Q-79.512-6.05 -78.242-4.54Q-76.97200000000001-3.02 -74.402-3.02L-74.402-3.02Q-72.53200000000001-3.02 -70.872-3.91Q-69.212-4.8 -67.822-6.38L-67.822-6.38L-67.822-24.31L-63.55200000000001-24.31L-63.55200000000001 0L-66.092 0Q-67.012 0 -67.25200000000001-0.89L-67.25200000000001-0.89L-67.58200000000001-3.5Q-69.172-1.75 -71.132-0.68Q-73.102 0.38 -75.652 0.38L-75.652 0.38Q-77.642 0.38 -79.162-0.28Q-80.69200000000001-0.94 -81.72200000000001-2.14Q-82.75200000000001-3.34 -83.272-5.04Q-83.782-6.74 -83.782-8.81L-83.782-8.81L-83.782-24.31ZM-41.644000000000005-21.86L-42.604-20.3Q-42.884-19.78 -43.484-19.78L-43.484-19.78Q-43.844-19.78 -44.304-20.04Q-44.764-20.3 -45.424-20.63Q-46.084-20.95 -46.994-21.23Q-47.904-21.5 -49.154-21.5L-49.154-21.5Q-50.234-21.5 -51.094-21.23Q-51.964-20.95 -52.574-20.47Q-53.184-19.99 -53.504000000000005-19.36Q-53.834-18.72 -53.834-17.98L-53.834-17.98Q-53.834-17.04 -53.294-16.42Q-52.754000000000005-15.79 -51.864000000000004-15.34Q-50.974000000000004-14.88 -49.844-14.53Q-48.724000000000004-14.18 -47.534-13.79Q-46.344-13.39 -45.214-12.91Q-44.084-12.43 -43.204-11.71Q-42.314-10.99 -41.774-9.95Q-41.234-8.9 -41.234-7.44L-41.234-7.44Q-41.234-5.76 -41.834-4.33Q-42.434-2.9 -43.604-1.86Q-44.784-0.82 -46.484-0.22Q-48.194 0.38 -50.424 0.38L-50.424 0.38Q-52.964 0.38 -55.034-0.44Q-57.094-1.27 -58.534-2.57L-58.534-2.57L-57.524-4.2Q-57.334-4.51 -57.074-4.68Q-56.804-4.85 -56.374-4.85L-56.374-4.85Q-55.944-4.85 -55.464-4.51Q-54.984-4.18 -54.304-3.77Q-53.614000000000004-3.36 -52.644-3.02Q-51.674-2.69 -50.204-2.69L-50.204-2.69Q-48.964-2.69 -48.024-3.01Q-47.084-3.34 -46.464-3.89Q-45.844-4.44 -45.544-5.16Q-45.244-5.88 -45.244-6.7L-45.244-6.7Q-45.244-7.7 -45.784-8.36Q-46.324-9.02 -47.204-9.49Q-48.094-9.96 -49.234-10.31Q-50.374-10.66 -51.564-11.04Q-52.754000000000005-11.42 -53.894-11.92Q-55.034-12.41 -55.924-13.15Q-56.804-13.9 -57.344-14.99Q-57.884-16.08 -57.884-17.64L-57.884-17.64Q-57.884-19.03 -57.314-20.32Q-56.734-21.6 -55.634-22.57Q-54.524-23.54 -52.924-24.12Q-51.314-24.7 -49.244-24.7L-49.244-24.7Q-46.844-24.7 -44.944-23.94Q-43.034000000000006-23.18 -41.644000000000005-21.86L-41.644000000000005-21.86ZM-26.061999999999998-24.7L-26.061999999999998-24.7Q-23.881999999999998-24.7 -22.032-23.96Q-20.182-23.23 -18.842-21.85Q-17.492-20.47 -16.742-18.44Q-15.982-16.42 -15.982-13.82L-15.982-13.82Q-15.982-12.82 -16.202-12.48Q-16.412-12.14 -17.012-12.14L-17.012-12.14L-33.192-12.14Q-33.142-9.84 -32.572-8.14Q-31.992-6.43 -30.982-5.29Q-29.972-4.15 -28.582-3.59Q-27.192-3.02 -25.462-3.02L-25.462-3.02Q-23.852-3.02 -22.692-3.4Q-21.532-3.77 -20.692-4.2Q-19.852-4.63 -19.282-5Q-18.722-5.38 -18.312-5.38L-18.312-5.38Q-17.782-5.38 -17.492-4.97L-17.492-4.97L-16.292-3.41Q-17.092-2.45 -18.192-1.74Q-19.292-1.03 -20.552-0.58Q-21.812-0.12 -23.162 0.11Q-24.502000000000002 0.34 -25.822000000000003 0.34L-25.822000000000003 0.34Q-28.342 0.34 -30.472-0.52Q-32.592-1.37 -34.142-3.01Q-35.692-4.66 -36.552-7.08Q-37.412-9.5 -37.412-12.65L-37.412-12.65Q-37.412-15.19 -36.632-17.4Q-35.852000000000004-19.61 -34.392-21.23Q-32.932-22.85 -30.811999999999998-23.77Q-28.701999999999998-24.7 -26.061999999999998-24.7ZM-25.972-21.55L-25.972-21.55Q-29.061999999999998-21.55 -30.842-19.76Q-32.612-17.98 -33.052-14.81L-33.052-14.81L-19.822-14.81Q-19.822-16.3 -20.232-17.53Q-20.642-18.77 -21.432-19.67Q-22.222-20.57 -23.362000000000002-21.06Q-24.502000000000002-21.55 -25.972-21.55ZM 6.284000000000001 0L-4.436-34.39L-0.5759999999999996-34.39Q 0.04400000000000048-34.39  0.4540000000000006-34.08Q 0.8639999999999999-33.77  1.0040000000000004-33.29L 1.0040000000000004-33.29L 8.114-9.38Q 8.304-8.74  8.464-7.99Q 8.614-7.25  8.764-6.43L 8.764-6.43Q 8.924-7.25  9.094-8Q 9.264-8.76  9.484-9.38L 9.484-9.38L 17.564-33.29Q 17.714-33.7  18.134-34.04Q 18.554-34.39  19.154-34.39L 19.154-34.39L 20.494-34.39Q 21.124-34.39  21.514-34.08Q 21.914-33.77  22.084-33.29L 22.084-33.29L 30.124-9.38Q 30.554-8.14  30.883999999999997-6.53L 30.883999999999997-6.53Q 31.034000000000002-7.32  31.154-8.04Q 31.273999999999997-8.76  31.464000000000002-9.38L 31.464000000000002-9.38L 38.593999999999994-33.29Q 38.714-33.72  39.134-34.06Q 39.554-34.39  40.153999999999996-34.39L 40.153999999999996-34.39L 43.774-34.39L 33.044 0L 28.874 0L 20.164-26.23Q 19.894000000000002-26.98  19.684-27.96L 19.684-27.96Q 19.564-27.48  19.454-27.04Q 19.344-26.59  19.224-26.23L 19.224-26.23L 10.464 0L 6.284000000000001 0ZM 56.498-24.7L 56.498-24.7Q 58.678-24.7  60.52799999999999-23.96Q 62.378-23.23  63.717999999999996-21.85Q 65.068-20.47  65.818-18.44Q 66.578-16.42  66.578-13.82L 66.578-13.82Q 66.578-12.82  66.35799999999999-12.48Q 66.148-12.14  65.548-12.14L 65.548-12.14L 49.367999999999995-12.14Q 49.41799999999999-9.84  49.98799999999999-8.14Q 50.568-6.43  51.577999999999996-5.29Q 52.587999999999994-4.15  53.977999999999994-3.59Q 55.367999999999995-3.02  57.098-3.02L 57.098-3.02Q 58.708-3.02  59.867999999999995-3.4Q 61.02799999999999-3.77  61.867999999999995-4.2Q 62.708-4.63  63.27799999999999-5Q 63.837999999999994-5.38  64.24799999999999-5.38L 64.24799999999999-5.38Q 64.77799999999999-5.38  65.068-4.97L 65.068-4.97L 66.268-3.41Q 65.46799999999999-2.45  64.368-1.74Q 63.267999999999994-1.03  62.007999999999996-0.58Q 60.74799999999999-0.12  59.397999999999996 0.11Q 58.05799999999999 0.34  56.73799999999999 0.34L 56.73799999999999 0.34Q 54.217999999999996 0.34  52.087999999999994-0.52Q 49.967999999999996-1.37  48.41799999999999-3.01Q 46.867999999999995-4.66  46.007999999999996-7.08Q 45.147999999999996-9.5  45.147999999999996-12.65L 45.147999999999996-12.65Q 45.147999999999996-15.19  45.928-17.4Q 46.708-19.61  48.16799999999999-21.23Q 49.62799999999999-22.85  51.748-23.77Q 53.858-24.7  56.498-24.7ZM 56.587999999999994-21.55L 56.587999999999994-21.55Q 53.498-21.55  51.717999999999996-19.76Q 49.94799999999999-17.98  49.507999999999996-14.81L 49.507999999999996-14.81L 62.738-14.81Q 62.738-16.3  62.327999999999996-17.53Q 61.91799999999999-18.77  61.128-19.67Q 60.337999999999994-20.57  59.19799999999999-21.06Q 58.05799999999999-21.55  56.587999999999994-21.55ZM 106.204-7.1L 106.204-7.1Q 106.58399999999999-7.1  106.89399999999999-6.79L 106.89399999999999-6.79L 108.72399999999999-4.8Q 106.60399999999998-2.35  103.594-0.98Q 100.58399999999999 0.38  96.33399999999999 0.38L 96.33399999999999 0.38Q 92.61399999999999 0.38  89.594-0.9Q 86.564-2.18  84.434-4.5Q 82.294-6.82  81.124-10.06Q 79.94399999999999-13.3  79.94399999999999-17.18L 79.94399999999999-17.18Q 79.94399999999999-21.07  81.204-24.31Q 82.464-27.55  84.74399999999999-29.88Q 87.02399999999999-32.21  90.204-33.49Q 93.38399999999999-34.78  97.22399999999999-34.78L 97.22399999999999-34.78Q 101.014-34.78  103.764-33.6Q 106.514-32.42  108.64399999999999-30.41L 108.64399999999999-30.41L 107.13399999999999-28.27Q 106.964-28.03  106.75399999999999-27.88Q 106.53399999999999-27.72  106.124-27.72L 106.124-27.72Q 105.814-27.72  105.464-27.95Q 105.124-28.18  104.64399999999999-28.51Q 104.16399999999999-28.85  103.514-29.23Q 102.86399999999999-29.62  101.97399999999999-29.95Q 101.08399999999999-30.29  99.91399999999999-30.52Q 98.734-30.74  97.204-30.74L 97.204-30.74Q 94.44399999999999-30.74  92.14399999999999-29.8Q 89.85399999999998-28.85  88.204-27.1Q 86.544-25.34  85.624-22.82Q 84.69399999999999-20.3  84.69399999999999-17.18L 84.69399999999999-17.18Q 84.69399999999999-13.97  85.624-11.45Q 86.544-8.93  88.14399999999999-7.19Q 89.734-5.45  91.92399999999999-4.54Q 94.10399999999998-3.62  96.624-3.62L 96.624-3.62Q 98.16399999999999-3.62  99.38399999999999-3.8Q 100.60399999999998-3.98  101.654-4.37Q 102.69399999999999-4.75  103.594-5.34Q 104.494-5.93  105.404-6.74L 105.404-6.74Q 105.814-7.1  106.204-7.1ZM 132.024-15.55L 132.024 0L 130.124 0Q 129.504 0  129.124-0.19Q 128.73399999999998-0.38  128.61399999999998-1.01L 128.61399999999998-1.01L 128.134-3.26Q 127.17399999999999-2.4  126.26399999999998-1.72Q 125.35399999999998-1.03  124.344-0.56Q 123.33399999999999-0.1  122.19399999999999 0.14Q 121.05399999999999 0.38  119.66399999999999 0.38L 119.66399999999999 0.38Q 118.24399999999999 0.38  117.01399999999998-0.01Q 115.77399999999999-0.41  114.86399999999999-1.2Q 113.954-1.99  113.41399999999999-3.2Q 112.87399999999998-4.42  112.87399999999998-6.07L 112.87399999999998-6.07Q 112.87399999999998-7.51  113.66399999999999-8.84Q 114.454-10.18  116.22399999999999-11.21Q 117.98399999999998-12.24  120.844-12.9Q 123.69399999999999-13.56  127.82399999999998-13.66L 127.82399999999998-13.66L 127.82399999999998-15.55Q 127.82399999999998-18.38  126.61399999999999-19.84Q 125.40399999999998-21.29  123.02399999999999-21.29L 123.02399999999999-21.29Q 121.46399999999998-21.29  120.39399999999999-20.89Q 119.32399999999998-20.5  118.54399999999998-20Q 117.76399999999998-19.51  117.204-19.12Q 116.64399999999999-18.72  116.08399999999999-18.72L 116.08399999999999-18.72Q 115.65399999999998-18.72  115.33399999999999-18.95Q 115.00399999999999-19.18  114.814-19.51L 114.814-19.51L 114.04399999999998-20.88Q 116.064-22.82  118.39399999999999-23.78Q 120.72399999999999-24.74  123.55399999999999-24.74L 123.55399999999999-24.74Q 125.594-24.74  127.17399999999999-24.07Q 128.76399999999998-23.4  129.844-22.2Q 130.92399999999998-21  131.474-19.3Q 132.024-17.59  132.024-15.55L 132.024-15.55ZM 120.93399999999998-2.62L 120.93399999999998-2.62Q 122.064-2.62  123.00399999999999-2.84Q 123.93399999999998-3.07  124.76399999999998-3.49Q 125.594-3.91  126.344-4.51Q 127.10399999999998-5.11  127.82399999999998-5.88L 127.82399999999998-5.88L 127.82399999999998-10.94Q 124.874-10.85  122.80399999999999-10.48Q 120.74399999999999-10.1  119.44399999999999-9.5Q 118.15399999999998-8.9  117.564-8.09Q 116.97399999999999-7.27  116.97399999999999-6.26L 116.97399999999999-6.26Q 116.97399999999999-5.3  117.28399999999999-4.61Q 117.60399999999998-3.91  118.12399999999998-3.47Q 118.65399999999998-3.02  119.374-2.82Q 120.094-2.62  120.93399999999998-2.62ZM 142.78 0L 138.5 0L 138.5-24.31L 140.95-24.31Q 141.65-24.31  141.91-24.05Q 142.18-23.78  142.27-23.14L 142.27-23.14L 142.56-19.34Q 143.81-21.89  145.64-23.32Q 147.48-24.74  149.95-24.74L 149.95-24.74Q 150.96-24.74  151.78-24.52Q 152.59-24.29  153.29-23.88L 153.29-23.88L 152.74-20.69Q 152.57-20.09  151.99-20.09L 151.99-20.09Q 151.66-20.09  150.96-20.32Q 150.26-20.54  149.02-20.54L 149.02-20.54Q 146.78-20.54  145.28-19.25Q 143.78-17.95  142.78-15.48L 142.78-15.48L 142.78 0ZM 167.474-24.7L 167.474-24.7Q 169.654-24.7  171.504-23.96Q 173.35399999999998-23.23  174.694-21.85Q 176.04399999999998-20.47  176.79399999999998-18.44Q 177.554-16.42  177.554-13.82L 177.554-13.82Q 177.554-12.82  177.334-12.48Q 177.124-12.14  176.524-12.14L 176.524-12.14L 160.344-12.14Q 160.394-9.84  160.964-8.14Q 161.54399999999998-6.43  162.554-5.29Q 163.564-4.15  164.954-3.59Q 166.344-3.02  168.07399999999998-3.02L 168.07399999999998-3.02Q 169.684-3.02  170.844-3.4Q 172.004-3.77  172.844-4.2Q 173.684-4.63  174.254-5Q 174.814-5.38  175.224-5.38L 175.224-5.38Q 175.754-5.38  176.04399999999998-4.97L 176.04399999999998-4.97L 177.244-3.41Q 176.444-2.45  175.344-1.74Q 174.244-1.03  172.98399999999998-0.58Q 171.724-0.12  170.374 0.11Q 169.034 0.34  167.714 0.34L 167.714 0.34Q 165.194 0.34  163.064-0.52Q 160.944-1.37  159.394-3.01Q 157.844-4.66  156.98399999999998-7.08Q 156.124-9.5  156.124-12.65L 156.124-12.65Q 156.124-15.19  156.904-17.4Q 157.684-19.61  159.144-21.23Q 160.60399999999998-22.85  162.724-23.77Q 164.834-24.7  167.474-24.7ZM 167.564-21.55L 167.564-21.55Q 164.474-21.55  162.694-19.76Q 160.924-17.98  160.48399999999998-14.81L 160.48399999999998-14.81L 173.714-14.81Q 173.714-16.3  173.304-17.53Q 172.894-18.77  172.10399999999998-19.67Q 171.314-20.57  170.174-21.06Q 169.034-21.55  167.564-21.55ZM 181.606-2.64L 181.606-2.64Q 181.606-3.26  181.83599999999998-3.82Q 182.06599999999997-4.37  182.456-4.78Q 182.856-5.18  183.40599999999998-5.42Q 183.956-5.66  184.58599999999998-5.66L 184.58599999999998-5.66Q 185.206-5.66  185.75599999999997-5.42Q 186.31599999999997-5.18  186.71599999999998-4.78Q 187.12599999999998-4.37  187.356-3.82Q 187.58599999999998-3.26  187.58599999999998-2.64L 187.58599999999998-2.64Q 187.58599999999998-1.99  187.356-1.45Q 187.12599999999998-0.91  186.71599999999998-0.5Q 186.31599999999997-0.1  185.75599999999997 0.13Q 185.206 0.36  184.58599999999998 0.36L 184.58599999999998 0.36Q 183.956 0.36  183.40599999999998 0.13Q 182.856-0.1  182.456-0.5Q 182.06599999999997-0.91  181.83599999999998-1.45Q 181.606-1.99  181.606-2.64Z"></path><g transform="matrix(0.1650390475988388, 0, 0, 0.1650390475988388, 213.74993896484375, 171.17111206054688)" data-uid="o_f5i443a2e_7"><path d="m113.707 512-58.132-120.208c-43.694-90.351-18.098-196.268 55.842-257.579 46.027-38.166 89.94-78.812 130.239-122.984l10.244-11.229 23.821 31.473c29.393 38.834 51.822 80.128 65.073 121.97z" fill="#00aa95" transform="matrix(1, 0, 0, 1, 0, 0)" data-uid="o_f5i443a2e_8"></path><path d="m468.766 149.938-7.743-38.704c-38.269 90.207-136.426 138.139-192.689 200.383-98.392 108.852-154.627 200.383-154.627 200.383h58.256c258.928 0 334.274-174.759 296.803-362.062z" fill="#00cc76" transform="matrix(1, 0, 0, 1, 0, 0)" data-uid="o_f5i443a2e_9"></path><path d="m461.022 111.234-14.112 5.649c-34.771 13.919-70.217 25.975-106.117 36.56v.001c-21.412 6.314-42.985 12.104-64.674 17.454-93.258 23.005-162.413 107.214-162.413 207.575v133.527c.001 0 242.122-152.806 347.316-400.766z" fill="#a5e887" transform="matrix(1, 0, 0, 1, 0, 0)" data-uid="o_f5i443a2e_10"></path></g></svg>